<?xml version="1.0" encoding="UTF-8"?>
<svg width="36px" height="36px" viewBox="0 0 36 36" version="1.1" xmlns="http://www.w3.org/2000/svg" xmlns:xlink="http://www.w3.org/1999/xlink">
    <!-- Generator: sketchtool 50.2 (55047) - http://www.bohemiancoding.com/sketch -->
    <title>64B3098E-9B70-4656-A3A9-0A0E5695A349</title>
    <desc>Created with sketchtool.</desc>
    <defs></defs>
    <g id="Page-1" stroke="none" stroke-width="1" fill="none" fill-rule="evenodd">
        <g id="главная" transform="translate(-99.000000, -6682.000000)">
            <g id="футер" transform="translate(0.000000, 6273.000000)">
                <g id="Group-27" transform="translate(100.000000, 410.000000)">
                    <circle id="Oval" stroke="#E3E3E4" fill="#E0E0E0" cx="17" cy="17" r="17"></circle>
                    <path d="M20.7364005,11.0024968 L19.0574188,11 C17.1711405,11 15.9521445,12.1591399 15.9521445,13.9532162 L15.9521445,15.3148466 L14.2640035,15.3148466 C14.1181281,15.3148466 14,15.4244562 14,15.5596579 L14,17.5325052 C14,17.667707 14.1182628,17.7771917 14.2640035,17.7771917 L15.9521445,17.7771917 L15.9521445,22.7553135 C15.9521445,22.8905153 16.0702727,23 16.2161481,23 L18.4186919,23 C18.5645673,23 18.6826955,22.8903904 18.6826955,22.7553135 L18.6826955,17.7771917 L20.656526,17.7771917 C20.8024014,17.7771917 20.9205295,17.667707 20.9205295,17.5325052 L20.9213377,15.5596579 C20.9213377,15.4947411 20.8934557,15.4325708 20.8440224,15.3866296 C20.7945891,15.3406885 20.7272412,15.3148466 20.6571995,15.3148466 L18.6826955,15.3148466 L18.6826955,14.1605755 C18.6826955,13.6057863 18.8253382,13.3241472 19.6050915,13.3241472 L20.7361312,13.3237727 C20.8818719,13.3237727 21,13.2141631 21,13.0790862 L21,11.2471833 C21,11.1122312 20.8820066,11.0027465 20.7364005,11.0024968 Z" id="Shape" fill="#424242" fill-rule="nonzero"></path>
                </g>
            </g>
        </g>
    </g>
</svg>