<?xml version="1.0" encoding="UTF-8"?>
<svg width="36px" height="36px" viewBox="0 0 36 36" version="1.1" xmlns="http://www.w3.org/2000/svg" xmlns:xlink="http://www.w3.org/1999/xlink">
    <!-- Generator: sketchtool 50.2 (55047) - http://www.bohemiancoding.com/sketch -->
    <title>083BA962-F25D-459B-8FCC-AA8C80A16A21</title>
    <desc>Created with sketchtool.</desc>
    <defs></defs>
    <g id="Page-1" stroke="none" stroke-width="1" fill="none" fill-rule="evenodd">
        <g id="главная" transform="translate(-148.000000, -6682.000000)">
            <g id="футер" transform="translate(0.000000, 6273.000000)">
                <g id="Group-28" transform="translate(149.000000, 410.000000)">
                    <circle id="Oval" stroke="#E3E3E4" fill="#E0E0E0" cx="17" cy="17" r="17"></circle>
                    <g id="rss-symbol" transform="translate(13.000000, 11.000000)" fill="#393939" fill-rule="nonzero">
                        <path d="M1.50002736,8 C1.08328925,8 0.729189091,8.14588027 0.437425887,8.43750399 C0.145854237,8.72910035 0,9.08327936 0,9.49998632 C0,9.91680273 0.145717413,10.2708997 0.437425887,10.562496 C0.729189091,10.8541197 1.0833987,11 1.50002736,11 C1.91671075,11 2.27083827,10.8541197 2.56254675,10.562496 C2.85414576,10.2708997 3,9.91680273 3,9.49998632 C3,9.083252 2.85414576,8.72910035 2.56254675,8.43750399 C2.27092037,8.14588027 1.91679285,8 1.50002736,8 Z" id="Shape"></path>
                        <path d="M5.24460265,5.75440256 C4.74020287,5.24549189 4.16221842,4.84038981 3.51055549,4.53909631 C2.85889255,4.23770899 2.17594792,4.05802585 1.46186229,4 L1.42844669,4 C1.31239488,4 1.21641588,4.03797246 1.14060349,4.11384701 C1.04682875,4.19410751 1,4.2990888 1,4.4285329 L1,5.33253068 C1,5.44410262 1.03679234,5.54010093 1.11040047,5.62052561 C1.18403205,5.70095029 1.27663432,5.74558376 1.38823071,5.75440256 C2.4103027,5.85265248 3.28400941,6.26457976 4.00925702,6.98992639 C4.73455153,7.71527303 5.14632559,8.58920244 5.24450885,9.61143317 C5.25346658,9.7231693 5.29806762,9.81576674 5.37845267,9.88929586 C5.45881427,9.96312989 5.55472292,10 5.66629587,10 L6.57015869,10 C6.69952984,10 6.80439622,9.95320874 6.88473437,9.85936822 C6.96964518,9.76996056 7.0075162,9.66279802 6.99876952,9.53783369 C6.94066154,8.82372164 6.76099111,8.14059269 6.45973477,7.48884554 C6.15850187,6.83700458 5.75341094,6.25895073 5.24460265,5.75440256 Z" id="Shape"></path>
                        <path d="M10.1465269,5.9621991 C9.6399867,4.8282467 8.944038,3.82096064 8.05878031,2.94026632 C7.17814901,2.05484563 6.17101325,1.35887722 5.03707453,0.852236686 C3.90326018,0.345695657 2.71614283,0.0615421355 1.47572247,0 L1.45445599,0 C1.33135913,0 1.22721556,0.0426118343 1.14197552,0.127860378 C1.04733347,0.21300942 1,0.321989249 1,0.454575984 L1,1.47012072 C1,1.58852839 1.04146342,1.69143858 1.12426589,1.7790503 C1.20709324,1.8666869 1.30765509,1.91278131 1.42602607,1.91760717 C2.44393187,1.97924881 3.41087275,2.2207905 4.32697305,2.64215761 C5.24304849,3.06354959 6.03839,3.61160793 6.71304734,4.28618337 C7.38755545,4.96088318 7.93553421,5.75635384 8.35688414,6.67252072 C8.77823407,7.58883684 9.01743845,8.55572499 9.07419881,9.57368265 C9.07904906,9.69218982 9.12508913,9.79281146 9.21259261,9.87564708 C9.30024534,9.95845781 9.40565744,10 9.52872942,10 L10.5441231,10 C10.6767214,10 10.7854168,9.95268668 10.870806,9.85783617 C10.9655476,9.76315979 11.0080308,9.65201579 10.9987532,9.52413054 C10.9372918,8.28348686 10.6530671,7.09627588 10.1465269,5.9621991 Z" id="Shape"></path>
                    </g>
                </g>
            </g>
        </g>
    </g>
</svg>