<?xml version="1.0" encoding="UTF-8"?>
<svg width="36px" height="36px" viewBox="0 0 36 36" version="1.1" xmlns="http://www.w3.org/2000/svg" xmlns:xlink="http://www.w3.org/1999/xlink">
    <!-- Generator: sketchtool 50.2 (55047) - http://www.bohemiancoding.com/sketch -->
    <title>C6802508-BF24-40EE-8108-30ED0D2538B4</title>
    <desc>Created with sketchtool.</desc>
    <defs></defs>
    <g id="Page-1" stroke="none" stroke-width="1" fill="none" fill-rule="evenodd">
        <g id="главная" transform="translate(-197.000000, -6682.000000)">
            <g id="футер" transform="translate(0.000000, 6273.000000)">
                <g id="Group-27" transform="translate(198.000000, 410.000000)">
                    <circle id="Oval" stroke="#E3E3E4" fill="#E0E0E0" cx="17" cy="17" r="17"></circle>
                    <path d="M24.8573872,21.0274333 C24.814384,20.9564471 24.5483645,20.3865861 23.2682706,19.2153148 C21.9281722,17.9888319 22.1081854,18.1879875 23.7223039,16.0672765 C24.705376,14.775723 25.0984049,13.9869881 24.9753959,13.6498039 C24.8583873,13.3283944 24.1353342,13.4131834 24.1353342,13.4131834 L21.7311577,13.4269863 C21.7311577,13.4269863 21.5531447,13.4033243 21.4201349,13.4812118 C21.2911254,13.5581135 21.2081193,13.7355788 21.2081193,13.7355788 C21.2081193,13.7355788 20.8270914,14.7353004 20.3190541,15.5851623 C19.2479755,17.3785483 18.818944,17.4731965 18.6439311,17.3617877 C18.2369013,17.1024911 18.3389087,16.3186857 18.3389087,15.7626276 C18.3389087,14.024453 18.6059283,13.2998028 17.8178705,13.1124782 C17.5558513,13.0503654 17.3638372,13.0089568 16.6947881,13.0020554 C15.8367251,12.9931821 15.1096717,13.0050131 14.6986415,13.2031828 C14.4246214,13.3352959 14.2136059,13.6300855 14.3426154,13.6468462 C14.5016271,13.6675505 14.8616535,13.7424803 15.0526675,13.9988191 C15.2996857,14.3291019 15.290685,15.0724845 15.290685,15.0724845 C15.290685,15.0724845 15.4326954,17.1182658 14.9596607,17.3726328 C14.6346368,17.5471404 14.1896042,17.1912238 13.2345341,15.563472 C12.7454982,14.7303708 12.375471,13.8085368 12.375471,13.8085368 C12.375471,13.8085368 12.3044658,13.636987 12.1774565,13.5452965 C12.0234452,13.4338877 11.8074293,13.3983947 11.8074293,13.3983947 L9.52126151,13.4121975 C9.52126151,13.4121975 9.17823633,13.4220567 9.05222708,13.5689586 C8.94021886,13.7000858 9.04322642,13.9702275 9.04322642,13.9702275 C9.04322642,13.9702275 10.8333578,18.0982689 12.8595065,20.1795432 C14.718643,22.0872958 16.8287979,21.9620842 16.8287979,21.9620842 L17.7848681,21.9620842 C17.7848681,21.9620842 18.0738893,21.9305348 18.2209001,21.7737737 C18.3569101,21.6298296 18.3519097,21.3596879 18.3519097,21.3596879 C18.3519097,21.3596879 18.3329083,20.0947542 18.9289521,19.9084156 C19.5159951,19.7250347 20.2700505,21.1309547 21.0691091,21.6722241 C21.6731535,22.0813803 22.1321872,21.9916617 22.1321872,21.9916617 L24.269344,21.9620842 C24.269344,21.9620842 25.3874261,21.8940558 24.8573872,21.0274333 Z" id="Shape" fill="#424242" fill-rule="nonzero"></path>
                </g>
            </g>
        </g>
    </g>
</svg>