<?xml version="1.0" encoding="UTF-8"?>
<svg width="1400px" height="217px" viewBox="0 0 1400 217" version="1.1" xmlns="http://www.w3.org/2000/svg" xmlns:xlink="http://www.w3.org/1999/xlink">
    <!-- Generator: sketchtool 50.2 (55047) - http://www.bohemiancoding.com/sketch -->
    <title>39001050-0454-41C5-8E7C-04E48F6D34F7</title>
    <desc>Created with sketchtool.</desc>
    <defs></defs>
    <g id="Page-1" stroke="none" stroke-width="1" fill="none" fill-rule="evenodd">
        <g id="о-нас" transform="translate(0.000000, -516.000000)" stroke="#3C3C3C" stroke-width="2">
            <g id="кейсы" transform="translate(-38.000000, 517.000000)">
                <path d="M172.056004,5.20330656 L113.77897,98.5159376 L175.177988,192.522343 L122.451148,192.522343 L73.193179,117.247841 L47.8704204,117.247841 L47.8704204,192.522343 L0,192.522343 L0,5.20330656 L47.8704204,5.20330656 L47.8704204,80.8246953 L72.8462919,80.8246953 L119.676051,5.20330656 L172.056004,5.20330656 Z M283.75295,197.725649 C256.001981,197.725649 229.291674,186.972149 211.947319,166.50581 C195.990512,147.080132 189.05277,124.53247 189.05277,98.8628247 C189.05277,72.4994048 197.031174,49.2579688 211.947319,31.2198394 C229.291674,10.7535002 256.348869,0 283.75295,0 C311.503918,0 338.214225,10.4066131 355.55858,31.2198394 C372.209161,50.9924043 378.800016,73.5400661 378.800016,98.8628247 C378.800016,125.573132 371.515387,146.733245 355.55858,166.50581 C337.867338,187.319036 311.850805,197.725649 283.75295,197.725649 Z M318.094773,137.71418 C326.073176,127.307567 328.848273,113.085196 328.848273,98.8628247 C328.848273,84.6404534 326.073176,70.071195 318.094773,59.6645819 C310.463257,49.2579688 297.628434,44.0546622 283.75295,44.0546622 C269.877466,44.0546622 257.042643,49.2579688 249.411126,59.6645819 C241.432723,70.071195 239.004513,84.6404534 239.004513,98.8628247 C239.004513,113.085196 241.432723,127.307567 249.411126,137.71418 C257.042643,148.120793 269.877466,153.670987 283.75295,153.670987 C297.628434,153.670987 310.463257,148.120793 318.094773,137.71418 Z M580.687546,5.20330656 L622.313999,5.20330656 L622.313999,192.522343 L574.443578,192.522343 L574.443578,106.147454 L532.123351,171.709117 L507.14748,171.709117 L464.827253,106.147454 L464.827253,192.522343 L416.956833,192.522343 L416.956833,5.20330656 L458.583285,5.20330656 L519.635416,99.5565989 L580.687546,5.20330656 Z M709.034882,60.3583561 L666.020881,39.892017 C667.061542,38.5044686 668.44909,36.0762588 669.836639,34.3418233 C686.834107,10.4066131 712.503753,0.346887104 743.376705,0.346887104 C777.718528,0.346887104 805.469497,11.7941615 820.732529,37.4638073 C828.017158,49.6048559 830.792255,63.4803401 830.792255,74.9276145 L830.792255,192.522343 L789.51269,192.522343 L789.51269,160.608729 C786.043819,170.668455 774.596544,181.075068 766.271254,185.931488 C753.089544,193.909891 736.78585,197.378762 722.563479,197.378762 C704.178462,197.378762 685.099671,188.359698 675.039945,176.565536 C665.327107,163.036939 660.470687,153.670987 660.470687,137.367293 C660.470687,117.247841 672.958623,97.4752763 690.649865,87.0686631 C711.463091,75.9682758 726.03235,75.6213887 752.742657,71.4587435 L782.921835,67.2960982 C781.187399,60.011469 775.984093,53.7675011 769.046351,49.951743 C761.414834,45.4422106 752.048883,43.7077751 742.336044,44.0546622 C730.194995,44.0546622 720.135269,46.8297591 712.85064,55.5019367 C711.463091,56.8894851 710.075543,58.6239206 709.034882,60.3583561 Z M783.962496,105.106793 L749.273786,111.697648 C729.154334,115.513406 707.99422,119.329164 707.300446,134.245309 C706.606672,145.345697 716.666398,155.058536 731.929431,154.364761 C751.701995,153.670987 775.637206,143.958148 781.534286,121.410486 C783.615609,113.77897 783.962496,106.841228 783.962496,105.106793 Z M1000.07244,5.20330656 L1047.24909,5.20330656 L1047.24909,192.522343 L1000.07244,192.522343 L1000.07244,119.329164 L923.063504,119.329164 L923.063504,192.522343 L875.886858,192.522343 L875.886858,5.20330656 L923.063504,5.20330656 L923.063504,72.1525177 L1000.07244,72.1525177 L1000.07244,5.20330656 Z M1258.84945,5.20330656 L1258.84945,148.120793 L1274.45937,148.120793 L1274.45937,214.723117 L1230.05782,214.723117 L1230.05782,192.522343 L1122.8697,192.522343 L1122.8697,214.723117 L1078.46815,214.723117 L1078.46815,148.120793 C1097.89383,148.120793 1110.03488,126.96068 1115.23819,83.9466792 L1124.25725,5.20330656 L1258.84945,5.20330656 Z M1214.4479,148.120793 L1214.4479,46.8297591 L1162.76172,46.8297591 L1157.9053,89.1499858 C1155.1302,114.472744 1149.9269,136.326632 1140.56094,148.120793 L1214.4479,148.120793 Z M1354.24263,60.3583561 L1311.22863,39.892017 C1312.26929,38.5044686 1313.65684,36.0762588 1315.04438,34.3418233 C1332.04185,10.4066131 1357.7115,0.346887104 1388.58445,0.346887104 C1422.92627,0.346887104 1450.67724,11.7941615 1465.94027,37.4638073 C1473.2249,49.6048559 1476,63.4803401 1476,74.9276145 L1476,192.522343 L1434.72043,192.522343 L1434.72043,160.608729 C1431.25156,170.668455 1419.80429,181.075068 1411.479,185.931488 C1398.29729,193.909891 1381.99359,197.378762 1367.77122,197.378762 C1349.38621,197.378762 1330.30742,188.359698 1320.24769,176.565536 C1310.53485,163.036939 1305.67843,153.670987 1305.67843,137.367293 C1305.67843,117.247841 1318.16637,97.4752763 1335.85761,87.0686631 C1356.67084,75.9682758 1371.24009,75.6213887 1397.9504,71.4587435 L1428.12958,67.2960982 C1426.39514,60.011469 1421.19184,53.7675011 1414.2541,49.951743 C1406.62258,45.4422106 1397.25663,43.7077751 1387.54379,44.0546622 C1375.40274,44.0546622 1365.34301,46.8297591 1358.05838,55.5019367 C1356.67084,56.8894851 1355.28329,58.6239206 1354.24263,60.3583561 Z M1429.17024,105.106793 L1394.48153,111.697648 C1374.36208,115.513406 1353.20197,119.329164 1352.50819,134.245309 C1351.81442,145.345697 1361.87414,155.058536 1377.13718,154.364761 C1396.90974,153.670987 1420.84495,143.958148 1426.74203,121.410486 C1428.82335,113.77897 1429.17024,106.841228 1429.17024,105.106793 Z" id="команда"></path>
            </g>
        </g>
    </g>
</svg>