<?xml version="1.0" encoding="UTF-8"?>
<svg width="103px" height="88px" viewBox="0 0 103 88" version="1.1" xmlns="http://www.w3.org/2000/svg" xmlns:xlink="http://www.w3.org/1999/xlink">
    <!-- Generator: sketchtool 52.3 (67297) - http://www.bohemiancoding.com/sketch -->
    <title>DC90B7F2-6F25-46A3-9991-C18B65C036BB</title>
    <desc>Created with sketchtool.</desc>
    <g id="Page-1" stroke="none" stroke-width="1" fill="none" fill-rule="evenodd">
        <g id="услуги" transform="translate(-43.000000, -956.000000)" stroke="#FFFFFF" stroke-width="2">
            <g id="Group-31" transform="translate(44.000000, 926.000000)">
                <g id="Group-26" transform="translate(0.000000, 31.000000)">
                    <path d="M30.3157316,85.054349 C21.6865346,85.054349 12.7167114,81.9887132 6.92606602,75.1761893 C1.13542066,67.9094971 0,61.8917676 0,52.5813182 L0,32.4843725 C0,23.4010072 0.908336528,17.3832777 6.92606602,9.88950136 C12.2625431,3.53114567 21.1188243,-0.21574251 30.3157316,0.0113416222 C38.9449286,-0.21574251 47.8012098,2.96343534 53.7053972,9.88950136 C59.6095846,16.8155674 60.6314632,23.1739231 60.6314632,32.4843725 L60.6314632,52.5813182 C60.6314632,61.4375993 59.6095846,68.1365812 53.7053972,75.1761893 C47.9147518,81.8751712 39.512639,85.054349 30.3157316,85.054349 Z M30.3157316,14.5447261 C25.2063386,14.431184 20.2104877,17.4968198 17.7125623,21.9249604 C15.8958892,24.9905961 15.7823472,28.169774 15.7823472,32.4843725 L15.7823472,52.5813182 C15.7823472,56.4417484 15.6688051,60.3021786 18.0531885,63.8219827 C20.7781981,67.9094971 25.4334228,70.6345066 30.3157316,70.5209646 C35.3115825,70.6345066 40.0803493,67.9094971 42.6918168,63.7084406 C44.9626581,60.4157207 44.8491161,57.463627 44.8491161,52.5813182 L44.8491161,32.4843725 C44.8491161,28.3968581 45.0762002,25.8989327 43.1459851,22.0385024 C40.6480596,17.4968198 35.5386666,14.431184 30.3157316,14.5447261 Z M85.0427622,1.71447261 L100.825109,1.71447261 L100.825109,83.4647601 L85.0427622,83.4647601 L85.0427622,18.5186984 L69.7145833,27.9426898 L69.7145833,10.91138 L85.0427622,1.71447261 Z" id="01"></path>
                </g>
            </g>
        </g>
    </g>
</svg>