<?xml version="1.0" encoding="UTF-8"?>
<svg width="131px" height="88px" viewBox="0 0 131 88" version="1.1" xmlns="http://www.w3.org/2000/svg" xmlns:xlink="http://www.w3.org/1999/xlink">
    <!-- Generator: sketchtool 52.3 (67297) - http://www.bohemiancoding.com/sketch -->
    <title>ED07704A-3980-44A2-9ED0-781687A931E6</title>
    <desc>Created with sketchtool.</desc>
    <g id="Page-1" stroke="none" stroke-width="1" fill="none" fill-rule="evenodd">
        <g id="услуги" transform="translate(-496.000000, -1006.000000)" stroke="#FFFFFF" stroke-width="2">
            <g id="Group-31" transform="translate(44.000000, 926.000000)">
                <g id="Group-25" transform="translate(453.000000, 81.000000)">
                    <path d="M30.3157316,85.054349 C21.6865346,85.054349 12.7167114,81.9887132 6.92606602,75.1761893 C1.13542066,67.9094971 0,61.8917676 0,52.5813182 L0,32.4843725 C0,23.4010072 0.908336528,17.3832777 6.92606602,9.88950136 C12.2625431,3.53114567 21.1188243,-0.21574251 30.3157316,0.0113416222 C38.9449286,-0.21574251 47.8012098,2.96343534 53.7053972,9.88950136 C59.6095846,16.8155674 60.6314632,23.1739231 60.6314632,32.4843725 L60.6314632,52.5813182 C60.6314632,61.4375993 59.6095846,68.1365812 53.7053972,75.1761893 C47.9147518,81.8751712 39.512639,85.054349 30.3157316,85.054349 Z M30.3157316,14.5447261 C25.2063386,14.431184 20.2104877,17.4968198 17.7125623,21.9249604 C15.8958892,24.9905961 15.7823472,28.169774 15.7823472,32.4843725 L15.7823472,52.5813182 C15.7823472,56.4417484 15.6688051,60.3021786 18.0531885,63.8219827 C20.7781981,67.9094971 25.4334228,70.6345066 30.3157316,70.5209646 C35.3115825,70.6345066 40.0803493,67.9094971 42.6918168,63.7084406 C44.9626581,60.4157207 44.8491161,57.463627 44.8491161,52.5813182 L44.8491161,32.4843725 C44.8491161,28.3968581 45.0762002,25.8989327 43.1459851,22.0385024 C40.6480596,17.4968198 35.5386666,14.431184 30.3157316,14.5447261 Z M71.1906302,27.3749795 C70.850004,19.4270349 74.5968922,11.5926323 80.3875375,6.48323938 C85.9510988,1.60093055 93.5584172,0.0113416222 100.484483,0.0113416222 C108.886596,0.0113416222 116.834541,2.84989327 121.943934,9.4353331 C126.258532,14.431184 128.415831,21.1301659 128.415831,27.7156057 C128.415831,39.2968964 123.079354,44.8604577 113.428279,53.2625706 L95.3750902,68.8178336 L126.7127,68.8178336 L126.7127,83.351218 L70.850004,83.351218 L70.850004,68.8178336 L105.480334,39.5239806 C110.703269,35.09584 112.519942,31.0083256 112.519942,27.4885216 C112.519942,24.5364279 111.611606,21.5843342 109.681391,19.1999508 C107.183465,16.134315 103.663661,14.5447261 99.5761467,14.5447261 C96.3969688,14.5447261 93.3313331,15.7936888 91.0604917,17.950988 C88.5625663,20.3353714 86.9729774,23.8551755 87.0865194,27.3749795 L71.1906302,27.3749795 Z" id="02"></path>
                </g>
            </g>
        </g>
    </g>
</svg>