<?xml version="1.0" encoding="UTF-8"?>
<svg width="130px" height="88px" viewBox="0 0 130 88" version="1.1" xmlns="http://www.w3.org/2000/svg" xmlns:xlink="http://www.w3.org/1999/xlink">
    <!-- Generator: Sketch 52.3 (67297) - http://www.bohemiancoding.com/sketch -->
    <title>03</title>
    <desc>Created with Sketch.</desc>
    <g id="Page-1" stroke="none" stroke-width="1" fill="none" fill-rule="evenodd">
        <g id="услуги" transform="translate(-952.000000, -925.000000)" stroke="#FFFFFF" stroke-width="2">
            <g id="Group-31" transform="translate(44.000000, 926.000000)">
                <g id="Group-13" transform="translate(909.000000, 0.000000)">
                    <path d="M30.3157316,85.054349 C21.6865346,85.054349 12.7167114,81.9887132 6.92606602,75.1761893 C1.13542066,67.9094971 0,61.8917676 0,52.5813182 L0,32.4843725 C0,23.4010072 0.908336528,17.3832777 6.92606602,9.88950136 C12.2625431,3.53114567 21.1188243,-0.21574251 30.3157316,0.0113416222 C38.9449286,-0.21574251 47.8012098,2.96343534 53.7053972,9.88950136 C59.6095846,16.8155674 60.6314632,23.1739231 60.6314632,32.4843725 L60.6314632,52.5813182 C60.6314632,61.4375993 59.6095846,68.1365812 53.7053972,75.1761893 C47.9147518,81.8751712 39.512639,85.054349 30.3157316,85.054349 Z M30.3157316,14.5447261 C25.2063386,14.431184 20.2104877,17.4968198 17.7125623,21.9249604 C15.8958892,24.9905961 15.7823472,28.169774 15.7823472,32.4843725 L15.7823472,52.5813182 C15.7823472,56.4417484 15.6688051,60.3021786 18.0531885,63.8219827 C20.7781981,67.9094971 25.4334228,70.6345066 30.3157316,70.5209646 C35.3115825,70.6345066 40.0803493,67.9094971 42.6918168,63.7084406 C44.9626581,60.4157207 44.8491161,57.463627 44.8491161,52.5813182 L44.8491161,32.4843725 C44.8491161,28.3968581 45.0762002,25.8989327 43.1459851,22.0385024 C40.6480596,17.4968198 35.5386666,14.431184 30.3157316,14.5447261 Z M123.192896,41.6812798 C126.258532,46.4500466 127.961663,52.0136078 127.734579,57.6907111 C127.507495,65.0709454 124.328317,72.4511797 118.99184,77.4470306 C113.655363,82.4428815 106.388671,85.1678911 99.2355205,84.940807 C92.0823703,85.1678911 84.8156781,82.3293394 79.479201,77.3334885 C75.959397,74.0407686 73.3479294,69.7261701 71.9854247,64.9574033 L86.9729774,60.983431 C87.5406877,63.1407303 88.5625663,65.0709454 90.1521552,66.6605343 C92.5365386,69.0449177 95.8292585,70.4074225 99.2355205,70.4074225 C102.641782,70.4074225 105.934502,69.0449177 108.318886,66.6605343 C110.703269,64.276151 112.065774,60.983431 112.065774,57.6907111 C112.065774,54.2844491 110.816811,50.8781872 108.318886,48.3802617 C105.82096,45.8823363 102.641782,44.8604577 99.2355205,44.8604577 C96.9646792,44.8604577 94.8073799,45.5417101 92.8771648,46.6771307 L85.9510988,34.5281297 L105.707418,16.2478571 L75.1646025,16.2478571 L75.1646025,1.71447261 L126.258532,1.71447261 L126.258532,16.8155674 L109.681391,32.2572884 C115.472036,33.9604193 119.900176,37.3666813 123.192896,41.6812798 Z" id="03" transform="translate(63.877366, 42.527175) rotate(-360.000000) translate(-63.877366, -42.527175) "></path>
                </g>
            </g>
        </g>
    </g>
</svg>