<?xml version="1.0" encoding="UTF-8"?>
<svg width="131px" height="88px" viewBox="0 0 131 88" version="1.1" xmlns="http://www.w3.org/2000/svg" xmlns:xlink="http://www.w3.org/1999/xlink">
    <!-- Generator: Sketch 52.3 (67297) - http://www.bohemiancoding.com/sketch -->
    <title>04</title>
    <desc>Created with Sketch.</desc>
    <g id="Page-1" stroke="none" stroke-width="1" fill="none" fill-rule="evenodd">
        <g id="услуги" transform="translate(-45.000000, -1386.000000)" stroke="#FFFFFF" stroke-width="2">
            <g id="Group-31" transform="translate(44.000000, 926.000000)">
                <g id="Group-29" transform="translate(2.000000, 461.000000)">
                    <path d="M30.3157316,85.054349 C21.6865346,85.054349 12.7167114,81.9887132 6.92606602,75.1761893 C1.13542066,67.9094971 0,61.8917676 0,52.5813182 L0,32.4843725 C0,23.4010072 0.908336528,17.3832777 6.92606602,9.88950136 C12.2625431,3.53114567 21.1188243,-0.21574251 30.3157316,0.0113416222 C38.9449286,-0.21574251 47.8012098,2.96343534 53.7053972,9.88950136 C59.6095846,16.8155674 60.6314632,23.1739231 60.6314632,32.4843725 L60.6314632,52.5813182 C60.6314632,61.4375993 59.6095846,68.1365812 53.7053972,75.1761893 C47.9147518,81.8751712 39.512639,85.054349 30.3157316,85.054349 Z M30.3157316,14.5447261 C25.2063386,14.431184 20.2104877,17.4968198 17.7125623,21.9249604 C15.8958892,24.9905961 15.7823472,28.169774 15.7823472,32.4843725 L15.7823472,52.5813182 C15.7823472,56.4417484 15.6688051,60.3021786 18.0531885,63.8219827 C20.7781981,67.9094971 25.4334228,70.6345066 30.3157316,70.5209646 C35.3115825,70.6345066 40.0803493,67.9094971 42.6918168,63.7084406 C44.9626581,60.4157207 44.8491161,57.463627 44.8491161,52.5813182 L44.8491161,32.4843725 C44.8491161,28.3968581 45.0762002,25.8989327 43.1459851,22.0385024 C40.6480596,17.4968198 35.5386666,14.431184 30.3157316,14.5447261 Z M121.489765,56.3282063 L128.756458,56.3282063 L128.756458,70.7480487 L121.489765,70.7480487 L121.489765,83.4647601 L105.82096,83.4647601 L105.82096,70.7480487 L70.850004,70.7480487 L70.850004,56.3282063 L96.624053,1.71447261 L112.633484,1.71447261 L86.8594353,56.3282063 L105.82096,56.3282063 L105.82096,35.8906345 L121.489765,35.8906345 L121.489765,56.3282063 Z" id="04" transform="translate(64.378229, 42.527175) rotate(-360.000000) translate(-64.378229, -42.527175) "></path>
                </g>
            </g>
        </g>
    </g>
</svg>