<?xml version="1.0" encoding="UTF-8"?>
<svg width="129px" height="88px" viewBox="0 0 129 88" version="1.1" xmlns="http://www.w3.org/2000/svg" xmlns:xlink="http://www.w3.org/1999/xlink">
    <!-- Generator: Sketch 52.3 (67297) - http://www.bohemiancoding.com/sketch -->
    <title>05</title>
    <desc>Created with Sketch.</desc>
    <g id="Page-1" stroke="none" stroke-width="1" fill="none" fill-rule="evenodd">
        <g id="услуги" transform="translate(-500.000000, -1436.000000)" stroke="#FFFFFF" stroke-width="2">
            <g id="Group-31" transform="translate(44.000000, 926.000000)">
                <g id="Group-30" transform="translate(457.000000, 511.000000)">
                    <path d="M30.3157316,85.054349 C21.6865346,85.054349 12.7167114,81.9887132 6.92606602,75.1761893 C1.13542066,67.9094971 0,61.8917676 0,52.5813182 L0,32.4843725 C0,23.4010072 0.908336528,17.3832777 6.92606602,9.88950136 C12.2625431,3.53114567 21.1188243,-0.21574251 30.3157316,0.0113416222 C38.9449286,-0.21574251 47.8012098,2.96343534 53.7053972,9.88950136 C59.6095846,16.8155674 60.6314632,23.1739231 60.6314632,32.4843725 L60.6314632,52.5813182 C60.6314632,61.4375993 59.6095846,68.1365812 53.7053972,75.1761893 C47.9147518,81.8751712 39.512639,85.054349 30.3157316,85.054349 Z M30.3157316,14.5447261 C25.2063386,14.431184 20.2104877,17.4968198 17.7125623,21.9249604 C15.8958892,24.9905961 15.7823472,28.169774 15.7823472,32.4843725 L15.7823472,52.5813182 C15.7823472,56.4417484 15.6688051,60.3021786 18.0531885,63.8219827 C20.7781981,67.9094971 25.4334228,70.6345066 30.3157316,70.5209646 C35.3115825,70.6345066 40.0803493,67.9094971 42.6918168,63.7084406 C44.9626581,60.4157207 44.8491161,57.463627 44.8491161,52.5813182 L44.8491161,32.4843725 C44.8491161,28.3968581 45.0762002,25.8989327 43.1459851,22.0385024 C40.6480596,17.4968198 35.5386666,14.431184 30.3157316,14.5447261 Z M76.3000232,1.71447261 L119.218924,1.71447261 L119.218924,16.134315 L89.9250711,16.134315 L88.9031925,33.9604193 C92.5365386,32.0302042 96.737595,31.1218677 100.257399,31.1218677 C106.502213,31.1218677 113.087653,33.392709 118.083503,37.5937655 C124.101233,43.0437846 126.7127,50.1969348 126.372074,57.6907111 C126.258532,65.0709454 122.965812,72.4511797 117.742877,77.4470306 C112.4064,82.4428815 105.139708,85.1678911 97.9865578,84.940807 C90.9469497,85.1678911 83.5667154,82.3293394 78.3437803,77.3334885 C74.8239763,74.0407686 72.2125088,69.7261701 70.850004,64.9574033 L85.7240146,60.983431 C86.291725,63.1407303 87.4271456,65.1844875 89.0167345,66.6605343 C91.4011179,69.0449177 94.6938378,70.4074225 97.9865578,70.4074225 C101.39282,70.4074225 104.68554,69.0449177 107.069923,66.7740764 C109.454306,64.389693 110.816811,61.0969731 110.816811,57.6907111 C110.816811,54.3979912 109.454306,51.1052713 107.069923,48.7208879 C104.68554,46.3365045 101.39282,44.9739997 97.9865578,44.9739997 C94.6938378,44.9739997 91.4011179,46.3365045 89.0167345,48.7208879 C88.2219401,49.5156824 87.5406877,50.4240189 87.0865194,51.3323554 L73.8020977,43.725037 L76.3000232,1.71447261 Z" id="05"></path>
                </g>
            </g>
        </g>
    </g>
</svg>