<?xml version="1.0" encoding="UTF-8"?>
<svg width="9px" height="16px" viewBox="0 0 9 16" version="1.1" xmlns="http://www.w3.org/2000/svg" xmlns:xlink="http://www.w3.org/1999/xlink">
    <!-- Generator: sketchtool 50.2 (55047) - http://www.bohemiancoding.com/sketch -->
    <title>7F04CDA8-B16C-41CA-B3E8-2E1E295316F0</title>
    <desc>Created with sketchtool.</desc>
    <defs></defs>
    <g id="Page-1" stroke="none" stroke-width="1" fill="none" fill-rule="evenodd">
        <g id="главная" transform="translate(-147.000000, -4023.000000)" fill="#3C3C3C" fill-rule="nonzero">
            <g id="давайе-поговорим" transform="translate(-4.000000, 3615.000000)">
                <g id="if_smartphone-01_186385" transform="translate(151.000000, 408.000000)">
                    <path d="M9,0.628565458 C9,0.280848396 8.73418165,0 8.40689937,0 L0.592575298,0 C0.265293019,0 0,0.280848396 0,0.628565458 L0,15.3719918 C0,15.7185944 0.265293019,16 0.592575298,16 L8.40689937,16 C8.73418165,16 9,15.7185944 9,15.3719918 L9,0.628565458 Z M4.49579734,15.337443 C4.11072846,15.337443 3.7981555,15.0064431 3.7981555,14.597987 C3.7981555,14.1906454 4.11072846,13.8596455 4.49579734,13.8596455 C4.88034088,13.8596455 5.19238851,14.1906454 5.19238851,14.597987 C5.19238851,15.0064431 4.88086622,15.337443 4.49579734,15.337443 Z M7.56111371,12.1896005 L1.43836096,12.1896005 L1.43836096,2.0623411 L7.56111371,2.0623411 L7.56111371,12.1896005 Z" id="Shape"></path>
                </g>
            </g>
        </g>
    </g>
</svg>