<?xml version="1.0" encoding="UTF-8"?>
<svg width="14px" height="14px" viewBox="0 0 14 14" version="1.1" xmlns="http://www.w3.org/2000/svg" xmlns:xlink="http://www.w3.org/1999/xlink">
    <!-- Generator: sketchtool 50.2 (55047) - http://www.bohemiancoding.com/sketch -->
    <title>C6CEC582-573D-4CA0-8183-F48B8DC5C6C3</title>
    <desc>Created with sketchtool.</desc>
    <defs></defs>
    <g id="Page-1" stroke="none" stroke-width="1" fill="none" fill-rule="evenodd">
        <g id="главная" transform="translate(-145.000000, -3910.000000)" fill="#3C3C3C" fill-rule="nonzero">
            <g id="давайе-поговорим" transform="translate(-4.000000, 3615.000000)">
                <g id="if_07-skype_104495" transform="translate(149.000000, 295.000000)">
                    <path d="M13.4073583,8.48666225 C13.5068345,8.0303085 13.5588206,7.55849943 13.5588206,7.07348307 C13.5588206,3.43782742 10.6116296,0.490355473 6.97541197,0.490355473 C6.59183878,0.490355473 6.21585275,0.523795187 5.84913992,0.586459525 C5.26127537,0.215531603 4.56466149,0 3.81830955,0 C1.70935951,0 0,1.70964051 0,3.81887156 C0,4.52335361 0.191927099,5.18287469 0.524638205,5.7496638 C0.436964332,6.17707392 0.39144136,6.62022039 0.39144136,7.07348307 C0.39144136,10.7099817 3.3386323,13.6574537 6.97513097,13.6574537 C7.38736677,13.6574537 7.78948636,13.6195179 8.18036571,13.5472993 C8.7182112,13.8358925 9.33249032,14 9.98554826,14 C12.0942173,14 13.8032958,12.2906405 13.8032958,10.1819715 C13.8035768,9.57275045 13.6608258,8.99781217 13.4073583,8.48666225 Z M10.3519801,10.2199073 C10.0479316,10.6506895 9.59775998,10.9923928 9.01439152,11.2346199 C8.43692419,11.4745991 7.74480641,11.5965557 6.95742759,11.5965557 C6.0118424,11.5965557 5.21856245,11.4299191 4.60006824,11.1017041 C4.15748379,10.86313 3.79301901,10.5399731 3.51594709,10.1395396 C3.23662713,9.73685795 3.0950001,9.33670541 3.0950001,8.95032215 C3.0950001,8.70950001 3.18717007,8.50015054 3.36926196,8.32901788 C3.54966781,8.15929026 3.78065474,8.07330242 4.05660264,8.07330242 C4.28281247,8.07330242 4.47811164,8.14074386 4.63659902,8.27450272 C4.78806126,8.40348447 4.91760503,8.59372554 5.02242026,8.83904378 C5.13931876,9.1068425 5.26605247,9.33249032 5.40065434,9.50924309 C5.53019811,9.68065675 5.71566207,9.82425082 5.95283114,9.93665322 C6.19168624,10.0493366 6.51371911,10.1069429 6.90881355,10.1069429 C7.45340318,10.1069429 7.89992172,9.99088738 8.23544289,9.76158648 C8.5636579,9.5379057 8.72214528,9.26898296 8.72214528,8.94020594 C8.72214528,8.68027539 8.63924851,8.47654603 8.46867787,8.3155296 C8.28855302,8.14776901 8.05278898,8.01822525 7.76560085,7.92802232 C7.46661047,7.83500933 7.06027579,7.73384717 6.55811806,7.62846992 C5.87414946,7.4823468 5.29415307,7.30868509 4.83246021,7.11282391 C4.35980811,6.91162361 3.97932599,6.63286566 3.70113005,6.28498023 C3.41871901,5.93063166 3.27512495,5.4877662 3.27512495,4.96565705 C3.27512495,4.46827643 3.42546316,4.01950985 3.7222055,3.6334076 C4.01641878,3.2492724 4.44663897,2.95028201 5.00022079,2.74627165 C5.54621545,2.54422834 6.19618233,2.44166115 6.93213705,2.44166115 C7.52000161,2.44166115 8.03649064,2.51022661 8.46839686,2.64370446 C8.90255113,2.77858734 9.26813994,2.96124124 9.55560908,3.18576504 C9.84476426,3.41225588 10.0605769,3.65364003 10.1960218,3.90542141 C10.3320287,4.15888882 10.4011561,4.41179422 10.4011561,4.65598844 C10.4011561,4.89147147 10.3106722,5.10531703 10.1311094,5.29218603 C9.95042251,5.47933602 9.72336966,5.57431605 9.45500893,5.57431605 C9.21137673,5.57431605 9.02029265,5.51446177 8.88793882,5.39812529 C8.76485819,5.28825194 8.63700046,5.11852432 8.49509243,4.8743301 C8.33098493,4.56297545 8.13231368,4.31681419 7.90441782,4.14343349 C7.68270408,3.97454889 7.31290018,3.88996608 6.80456033,3.88996608 C6.33303226,3.88996608 5.94889705,3.9843841 5.66395697,4.1718151 C5.3894141,4.35137793 5.25565525,4.55791734 5.25565525,4.80267357 C5.25565525,4.95301178 5.29893017,5.07777845 5.38800907,5.18568475 C5.48130306,5.30061621 5.61365689,5.40009233 5.78001244,5.48411312 C5.95283114,5.57150599 6.13183196,5.64035246 6.31027077,5.68924751 C6.49292467,5.7403906 6.79978322,5.8154192 7.22073021,5.91264728 C7.75351759,6.02729773 8.24387307,6.15515546 8.6763413,6.29397242 C9.11527268,6.43447542 9.49350675,6.6067321 9.80317537,6.8082134 C10.1181831,7.01334779 10.3679974,7.27665041 10.5453122,7.59193914 C10.723189,7.90807089 10.8131109,8.29810722 10.8131109,8.75165091 C10.8131109,9.29286847 10.6577146,9.78800104 10.3519801,10.2199073 Z" id="Shape"></path>
                </g>
            </g>
        </g>
    </g>
</svg>