<?xml version="1.0" encoding="UTF-8"?>
<svg width="15px" height="11px" viewBox="0 0 15 11" version="1.1" xmlns="http://www.w3.org/2000/svg" xmlns:xlink="http://www.w3.org/1999/xlink">
    <!-- Generator: sketchtool 50.2 (55047) - http://www.bohemiancoding.com/sketch -->
    <title>C5F0D97A-E4FF-40F1-AF31-A52F5748B9DC</title>
    <desc>Created with sketchtool.</desc>
    <defs></defs>
    <g id="Page-1" stroke="none" stroke-width="1" fill="none" fill-rule="evenodd">
        <g id="главная" transform="translate(-145.000000, -3856.000000)" fill="#3C3C3C" fill-rule="nonzero">
            <g id="давайе-поговорим" transform="translate(-4.000000, 3615.000000)">
                <g id="if_mail-01_186396" transform="translate(149.000000, 241.000000)">
                    <path d="M1.26589792,0.600403538 L6.6007936,4.74277101 C6.84270884,4.93039711 7.17607336,5.01378649 7.49986761,4.99815098 C7.82366186,5.01326531 8.15702638,4.93039711 8.39894162,4.74277101 L13.7338373,0.600403538 C14.1602461,0.269973119 14.06348,0 13.5211646,0 L7.50039929,0 L1.47910235,0 C0.936255178,0 0.840020763,0.269973119 1.26589792,0.600403538 Z" id="Shape"></path>
                    <path d="M14.2030437,2.16886126 L8.29857089,6.69257811 C8.07779261,6.86050561 7.78862691,6.94202382 7.4999997,6.93876309 C7.21137248,6.94202382 6.92220679,6.85996216 6.70142851,6.69257811 L0.79695574,2.16886126 C0.358630083,1.83354972 0,2.01343322 0,2.56830046 L0,9.99134809 C0,10.5462153 0.450172297,11 0.999964061,11 L7.4999997,11 L14.0000353,11 C14.5498271,11 14.9999994,10.5456719 14.9999994,9.99134809 L14.9999994,2.56830046 C15.0005379,2.01343322 14.6419078,1.83354972 14.2030437,2.16886126 Z" id="Shape"></path>
                </g>
            </g>
        </g>
    </g>
</svg>