<?xml version="1.0" encoding="UTF-8"?>
<svg width="15px" height="13px" viewBox="0 0 15 13" version="1.1" xmlns="http://www.w3.org/2000/svg" xmlns:xlink="http://www.w3.org/1999/xlink">
    <!-- Generator: sketchtool 50.2 (55047) - http://www.bohemiancoding.com/sketch -->
    <title>8B333486-BF3C-47DF-B70B-8A1A184A9E41</title>
    <desc>Created with sketchtool.</desc>
    <defs></defs>
    <g id="Page-1" stroke="none" stroke-width="1" fill="none" fill-rule="evenodd">
        <g id="главная" transform="translate(-145.000000, -3967.000000)" fill="#3C3C3C" fill-rule="nonzero">
            <g id="давайе-поговорим" transform="translate(-4.000000, 3615.000000)">
                <g id="if_send-01_186386" transform="translate(149.000000, 352.000000)">
                    <path d="M0.39874205,7.14024793 C-0.152061371,7.42886079 -0.129195916,7.85161766 0.448537932,8.08128846 L2.15785778,8.75759783 C2.73559162,8.98574426 3.60905203,8.86125456 4.09938903,8.47813115 L11.5240566,2.62305012 C12.0123611,2.23840234 12.0646976,2.29531192 11.6404163,2.74957231 L5.77059978,9.0319833 C5.3453023,9.48522744 5.47080825,10.0400958 6.05006646,10.2641773 L6.25026623,10.342428 C6.82952444,10.5660013 7.77462994,10.9430273 8.34982318,11.176763 L10.2461316,11.9496154 C10.821833,12.1833512 11.2928614,12.3774535 11.2938776,12.3810104 C11.2943858,12.3845672 11.2969264,12.3952378 11.2999751,12.396254 C11.3030238,12.3972703 11.4386922,11.9074414 11.6017991,11.3083664 L14.4919927,0.684567599 C14.6550996,0.0849845388 14.3385401,-0.169584201 13.7882448,0.119028662 L0.39874205,7.14024793 Z" id="Shape"></path>
                </g>
            </g>
        </g>
    </g>
</svg>