<?xml version="1.0" encoding="UTF-8"?>
<svg width="8px" height="14px" viewBox="0 0 8 14" version="1.1" xmlns="http://www.w3.org/2000/svg" xmlns:xlink="http://www.w3.org/1999/xlink">
    <!-- Generator: sketchtool 50.2 (55047) - http://www.bohemiancoding.com/sketch -->
    <title>467DE50C-6CA7-424F-B099-29CEFC79D26C</title>
    <desc>Created with sketchtool.</desc>
    <defs></defs>
    <g id="Page-1" stroke="none" stroke-width="1" fill="none" fill-rule="evenodd">
        <g id="о-нас" transform="translate(-370.000000, -1114.000000)" fill="#F8F9FB" fill-rule="nonzero">
            <g id="Bitmap" transform="translate(50.000000, 644.000000)">
                <path d="M327.698743,470.002913 L325.779907,470 C323.624161,470 322.231022,471.35233 322.231022,473.445419 L322.231022,475.033988 L320.301718,475.033988 C320.135004,475.033988 320,475.161866 320,475.319601 L320,477.621256 C320,477.778992 320.135157,477.906724 320.301718,477.906724 L322.231022,477.906724 L322.231022,483.714532 C322.231022,483.872268 322.366026,484 322.532741,484 L325.049934,484 C325.216648,484 325.351652,483.872122 325.351652,483.714532 L325.351652,477.906724 L327.607458,477.906724 C327.774173,477.906724 327.909177,477.778992 327.909177,477.621256 L327.9101,475.319601 C327.9101,475.243865 327.878235,475.171333 327.82174,475.117735 C327.765245,475.064137 327.688276,475.033988 327.608228,475.033988 L325.351652,475.033988 L325.351652,473.687338 C325.351652,473.040084 325.514672,472.711505 326.405819,472.711505 L327.698436,472.711068 C327.864996,472.711068 328,472.58319 328,472.425601 L328,470.288381 C328,470.130936 327.86515,470.003204 327.698743,470.002913 Z" id="Shape"></path>
            </g>
        </g>
    </g>
</svg>