<?xml version="1.0" encoding="UTF-8"?>
<svg width="16px" height="9px" viewBox="0 0 16 9" version="1.1" xmlns="http://www.w3.org/2000/svg" xmlns:xlink="http://www.w3.org/1999/xlink">
    <!-- Generator: sketchtool 50.2 (55047) - http://www.bohemiancoding.com/sketch -->
    <title>08C82714-DF4D-45D7-9D0B-81B25789959C</title>
    <desc>Created with sketchtool.</desc>
    <defs></defs>
    <g id="Page-1" stroke="none" stroke-width="1" fill="none" fill-rule="evenodd">
        <g id="о-нас" transform="translate(-330.000000, -1117.000000)" fill="#F8F9FB" fill-rule="nonzero">
            <g id="Bitmap" transform="translate(50.000000, 644.000000)">
                <path d="M295.857387,481.027433 C295.814384,480.956447 295.548365,480.386586 294.268271,479.215315 C292.928172,477.988832 293.108185,478.187988 294.722304,476.067276 C295.705376,474.775723 296.098405,473.986988 295.975396,473.649804 C295.858387,473.328394 295.135334,473.413183 295.135334,473.413183 L292.731158,473.426986 C292.731158,473.426986 292.553145,473.403324 292.420135,473.481212 C292.291125,473.558113 292.208119,473.735579 292.208119,473.735579 C292.208119,473.735579 291.827091,474.7353 291.319054,475.585162 C290.247975,477.378548 289.818944,477.473196 289.643931,477.361788 C289.236901,477.102491 289.338909,476.318686 289.338909,475.762628 C289.338909,474.024453 289.605928,473.299803 288.81787,473.112478 C288.555851,473.050365 288.363837,473.008957 287.694788,473.002055 C286.836725,472.993182 286.109672,473.005013 285.698642,473.203183 C285.424621,473.335296 285.213606,473.630086 285.342615,473.646846 C285.501627,473.66755 285.861654,473.74248 286.052668,473.998819 C286.299686,474.329102 286.290685,475.072485 286.290685,475.072485 C286.290685,475.072485 286.432695,477.118266 285.959661,477.372633 C285.634637,477.54714 285.189604,477.191224 284.234534,475.563472 C283.745498,474.730371 283.375471,473.808537 283.375471,473.808537 C283.375471,473.808537 283.304466,473.636987 283.177456,473.545297 C283.023445,473.433888 282.807429,473.398395 282.807429,473.398395 L280.521262,473.412198 C280.521262,473.412198 280.178236,473.422057 280.052227,473.568959 C279.940219,473.700086 280.043226,473.970227 280.043226,473.970227 C280.043226,473.970227 281.833358,478.098269 283.859507,480.179543 C285.718643,482.087296 287.828798,481.962084 287.828798,481.962084 L288.784868,481.962084 C288.784868,481.962084 289.073889,481.930535 289.2209,481.773774 C289.35691,481.62983 289.35191,481.359688 289.35191,481.359688 C289.35191,481.359688 289.332908,480.094754 289.928952,479.908416 C290.515995,479.725035 291.27005,481.130955 292.069109,481.672224 C292.673153,482.08138 293.132187,481.991662 293.132187,481.991662 L295.269344,481.962084 C295.269344,481.962084 296.387426,481.894056 295.857387,481.027433 Z" id="Shape"></path>
            </g>
        </g>
    </g>
</svg>